<svg width="65" height="64" viewBox="0 0 65 64" fill="none" xmlns="http://www.w3.org/2000/svg">
<path d="M32.2913 64.0001C49.9644 64.0001 64.2913 49.6732 64.2913 32.0001C64.2913 14.327 49.9644 0 32.2913 0C14.6181 0 0.29126 14.327 0.29126 32.0001C0.29126 49.6732 14.6181 64.0001 32.2913 64.0001Z" fill="#212E2C"/>
<path d="M63.7913 32.0001C63.7913 49.3971 49.6882 63.5001 32.2913 63.5001C14.8943 63.5001 0.79126 49.3971 0.79126 32.0001C0.79126 14.6031 14.8943 0.5 32.2913 0.5C49.6882 0.5 63.7913 14.6031 63.7913 32.0001Z" stroke="url(#paint0_linear_1206_815)" stroke-opacity="0.5"/>
<g clip-path="url(#clip0_1206_815)">
<path d="M32.0413 24.9375C31.7288 24.9375 31.4163 24.6875 31.4163 24.3125V13.125C31.4163 12.8125 31.6663 12.5 32.0413 12.5C32.3538 12.5 32.6663 12.75 32.6663 13.125V24.3125C32.6038 24.6875 32.3538 24.9375 32.0413 24.9375Z" fill="url(#paint1_linear_1206_815)"/>
<path d="M32.0413 46.625C23.9788 46.625 17.4163 40.0625 17.4163 32C17.4163 23.9375 23.9788 17.375 32.0413 17.375C40.1038 17.375 46.6663 23.9375 46.6663 32C46.6663 35.3125 45.6038 38.4375 43.5413 41C43.3538 41.25 42.9788 41.3125 42.7288 41.125C42.4788 40.9375 42.4163 40.5625 42.6038 40.3125C44.4788 37.9375 45.4788 35.0625 45.4788 32.0625C45.4788 24.625 39.4163 18.625 32.0413 18.625C24.6038 18.625 18.6038 24.6875 18.6038 32.0625C18.6038 39.5 24.6663 45.5 32.0413 45.5C35.0413 45.5 37.9163 44.5 40.2913 42.6875C40.5413 42.5 40.9163 42.5625 41.1038 42.8125C41.2913 43.0625 41.2288 43.4375 40.9788 43.625C38.4163 45.5625 35.2913 46.625 32.0413 46.625Z" fill="url(#paint2_linear_1206_815)"/>
<path d="M32.0413 41.9375C26.5413 41.9375 22.1038 37.5 22.1038 32C22.1038 26.5 26.5413 22.0625 32.0413 22.0625C37.5413 22.0625 41.9788 26.5 41.9788 32C41.9788 34 41.4163 35.9375 40.2913 37.5625C40.1038 37.8125 39.7288 37.9375 39.4788 37.75C39.2288 37.5625 39.1038 37.1875 39.2913 36.9375C40.2913 35.5 40.7913 33.8125 40.7913 32.0625C40.7913 27.25 36.8538 23.3125 32.0413 23.3125C27.2288 23.3125 23.2913 27.25 23.2913 32.0625C23.2913 36.875 27.2288 40.8125 32.0413 40.8125C33.7913 40.8125 35.5413 40.3125 36.9788 39.25C37.2288 39.0625 37.6038 39.125 37.7913 39.375C37.9788 39.625 37.9163 40 37.6663 40.1875C35.9788 41.375 34.0413 41.9375 32.0413 41.9375Z" fill="url(#paint3_linear_1206_815)"/>
<path d="M32.0413 37.1875C29.1663 37.1875 26.8538 34.875 26.8538 32C26.8538 29.125 29.1663 26.8125 32.0413 26.8125C34.9163 26.8125 37.2288 29.125 37.2288 32C37.2288 33.0625 36.9163 34 36.3538 34.875C36.1663 35.125 35.7913 35.25 35.5413 35.0625C35.2913 34.875 35.1663 34.5 35.3538 34.25C35.7913 33.625 36.0413 32.8125 36.0413 32.0625C36.0413 29.875 34.2288 28.0625 32.0413 28.0625C29.8538 28.0625 28.0413 29.875 28.0413 32.0625C28.0413 34.25 29.8538 36.0625 32.0413 36.0625C32.9163 36.0625 33.6663 35.8125 34.3538 35.3125C34.6038 35.125 34.9788 35.1875 35.1663 35.4375C35.3538 35.6875 35.2913 36.0625 35.0413 36.25C34.1663 36.875 33.1038 37.1875 32.0413 37.1875ZM32.0413 51.5C31.7288 51.5 31.4163 51.25 31.4163 50.875V39.6875C31.4163 39.375 31.6663 39.0625 32.0413 39.0625C32.3538 39.0625 32.6663 39.3125 32.6663 39.6875V50.875C32.6038 51.1875 32.3538 51.5 32.0413 51.5ZM24.7288 32.625H12.9163C12.6038 32.625 12.2913 32.375 12.2913 32C12.2913 31.6875 12.5413 31.375 12.9163 31.375H24.7913C25.1038 31.375 25.4163 31.625 25.4163 32C25.3538 32.3125 25.0413 32.625 24.7288 32.625ZM51.1663 32.625H39.2913C38.9788 32.625 38.6663 32.375 38.6663 32C38.6663 31.6875 38.9163 31.375 39.2913 31.375H51.1663C51.4788 31.375 51.7913 31.625 51.7913 32C51.7913 32.3125 51.5413 32.625 51.1663 32.625ZM47.1038 50.25C46.8538 50.25 46.6038 50.125 46.4163 50L35.1038 38.3125C34.8538 38.0625 34.8538 37.6875 35.1038 37.4375L37.6038 35C37.8538 34.75 38.2288 34.75 38.4788 35L49.7913 46.6875C49.9788 46.875 50.0413 47.125 50.0413 47.3125C50.0413 47.5625 49.9163 47.8125 49.7913 47.9375L47.7288 49.9375C47.6038 50.125 47.3538 50.25 47.1038 50.25ZM36.3538 37.875L47.1038 48.9375L48.7288 47.3125L37.9788 36.25L36.3538 37.875Z" fill="url(#paint4_linear_1206_815)"/>
<path d="M45.9788 49.25C45.8538 49.25 45.6663 49.1875 45.5413 49.0625C45.2913 48.8125 45.2913 48.4375 45.5413 48.1875L48.0413 45.75C48.2913 45.5 48.6663 45.5 48.9163 45.75C49.1663 46 49.1663 46.375 48.9163 46.625L46.4163 49.0625C46.2913 49.1875 46.1663 49.25 45.9788 49.25ZM35.5413 38.4375C35.2913 38.4375 35.0413 38.3125 34.9788 38.0625L33.4788 34C33.4163 33.75 33.4788 33.5 33.6038 33.375C33.7913 33.1875 34.0413 33.1875 34.2288 33.25L38.2288 34.875C38.5413 35 38.6663 35.375 38.5413 35.625C38.4163 35.9375 38.0413 36.0625 37.7913 35.9375L35.0413 34.8125L36.1038 37.625C36.2288 37.9375 36.0413 38.25 35.7288 38.375C35.6663 38.4375 35.6038 38.4375 35.5413 38.4375ZM18.6038 48C18.6038 48.125 18.6663 48.25 18.7913 48.25C18.9163 48.3125 19.0413 48.25 19.1038 48.1875L20.1663 47.125H21.6663C21.7913 47.125 21.9163 47.0625 21.9163 46.9375C21.9788 46.8125 21.9163 46.6875 21.8538 46.625L20.7913 45.5625V44.0625C20.7913 43.9375 20.7288 43.8125 20.6038 43.8125C20.4788 43.75 20.3538 43.8125 20.2913 43.875L19.2288 44.9375H17.7288C17.6038 44.9375 17.4788 45 17.4788 45.125C17.4163 45.25 17.4788 45.375 17.5413 45.4375L18.6038 46.5V48ZM19.4163 45.5625C19.4788 45.5625 19.6038 45.5625 19.6038 45.5L20.2288 44.875V45.75C20.2288 45.8125 20.2288 45.9375 20.2913 45.9375L20.9163 46.5625H20.0413C19.9788 46.5625 19.8538 46.5625 19.8538 46.625L19.2288 47.25V46.375C19.2288 46.3125 19.2288 46.1875 19.1663 46.1875L18.5413 45.5625H19.4163ZM46.4163 24.125C46.4163 24.3125 46.5413 24.5625 46.7288 24.625C46.9163 24.6875 47.1663 24.6875 47.2913 24.5L49.1038 22.625L51.6663 22.6875C51.8538 22.6875 52.1038 22.5625 52.1663 22.375C52.2288 22.1875 52.2288 21.9375 52.0413 21.8125L50.1663 20L50.2288 17.4375C50.2288 17.25 50.1038 17 49.9163 16.9375C49.7288 16.875 49.4788 16.875 49.3538 17.0625L47.5413 18.9375L44.9788 18.875C44.7913 18.875 44.5413 19 44.4788 19.1875C44.4163 19.375 44.4163 19.625 44.6038 19.75L46.4788 21.5625L46.4163 24.125ZM47.7913 19.9375C47.9163 19.9375 48.0413 19.875 48.1663 19.75L49.2288 18.6875V20.1875C49.2288 20.3125 49.2913 20.4375 49.4163 20.5625L50.4788 21.625H48.9788C48.8538 21.625 48.7288 21.6875 48.6038 21.8125L47.5413 22.875V21.375C47.5413 21.25 47.4788 21.125 47.3538 21L46.2913 19.9375H47.7913Z" fill="url(#paint5_linear_1206_815)"/>
</g>
<defs>
<linearGradient id="paint0_linear_1206_815" x1="0.29126" y1="0" x2="64.2913" y2="64.0001" gradientUnits="userSpaceOnUse">
<stop stop-color="#3B6670"/>
<stop offset="1" stop-color="#3B6670" stop-opacity="0"/>
</linearGradient>
<linearGradient id="paint1_linear_1206_815" x1="31.4163" y1="12.5" x2="34.1543" y2="12.8036" gradientUnits="userSpaceOnUse">
<stop stop-color="#54B0C5"/>
<stop offset="1" stop-color="#5ACD84"/>
</linearGradient>
<linearGradient id="paint2_linear_1206_815" x1="17.4163" y1="17.375" x2="46.6663" y2="49.6481" gradientUnits="userSpaceOnUse">
<stop stop-color="#54B0C5"/>
<stop offset="1" stop-color="#5ACD84"/>
</linearGradient>
<linearGradient id="paint3_linear_1206_815" x1="22.1038" y1="22.0625" x2="41.9788" y2="43.9917" gradientUnits="userSpaceOnUse">
<stop stop-color="#54B0C5"/>
<stop offset="1" stop-color="#5ACD84"/>
</linearGradient>
<linearGradient id="paint4_linear_1206_815" x1="12.2913" y1="26.8125" x2="33.5682" y2="64.3741" gradientUnits="userSpaceOnUse">
<stop stop-color="#54B0C5"/>
<stop offset="1" stop-color="#5ACD84"/>
</linearGradient>
<linearGradient id="paint5_linear_1206_815" x1="17.4529" y1="16.9001" x2="49.4778" y2="54.9813" gradientUnits="userSpaceOnUse">
<stop stop-color="#54B0C5"/>
<stop offset="1" stop-color="#5ACD84"/>
</linearGradient>
<clipPath id="clip0_1206_815">
<rect width="40" height="40" fill="white" transform="translate(12.2913 12)"/>
</clipPath>
</defs>
</svg>
