<svg width="40" height="40" viewBox="0 0 40 40" fill="none" xmlns="http://www.w3.org/2000/svg">
<g clip-path="url(#clip0_338_189)">
<path d="M19.75 12.9375C19.4375 12.9375 19.125 12.6875 19.125 12.3125V1.125C19.125 0.8125 19.375 0.5 19.75 0.5C20.0625 0.5 20.375 0.75 20.375 1.125V12.3125C20.3125 12.6875 20.0625 12.9375 19.75 12.9375Z" fill="url(#paint0_linear_338_189)"/>
<path d="M19.75 34.625C11.6875 34.625 5.125 28.0625 5.125 20C5.125 11.9375 11.6875 5.375 19.75 5.375C27.8125 5.375 34.375 11.9375 34.375 20C34.375 23.3125 33.3125 26.4375 31.25 29C31.0625 29.25 30.6875 29.3125 30.4375 29.125C30.1875 28.9375 30.125 28.5625 30.3125 28.3125C32.1875 25.9375 33.1875 23.0625 33.1875 20.0625C33.1875 12.625 27.125 6.625 19.75 6.625C12.3125 6.625 6.3125 12.6875 6.3125 20.0625C6.3125 27.5 12.375 33.5 19.75 33.5C22.75 33.5 25.625 32.5 28 30.6875C28.25 30.5 28.625 30.5625 28.8125 30.8125C29 31.0625 28.9375 31.4375 28.6875 31.625C26.125 33.5625 23 34.625 19.75 34.625Z" fill="url(#paint1_linear_338_189)"/>
<path d="M19.75 29.9375C14.25 29.9375 9.8125 25.5 9.8125 20C9.8125 14.5 14.25 10.0625 19.75 10.0625C25.25 10.0625 29.6875 14.5 29.6875 20C29.6875 22 29.125 23.9375 28 25.5625C27.8125 25.8125 27.4375 25.9375 27.1875 25.75C26.9375 25.5625 26.8125 25.1875 27 24.9375C28 23.5 28.5 21.8125 28.5 20.0625C28.5 15.25 24.5625 11.3125 19.75 11.3125C14.9375 11.3125 11 15.25 11 20.0625C11 24.875 14.9375 28.8125 19.75 28.8125C21.5 28.8125 23.25 28.3125 24.6875 27.25C24.9375 27.0625 25.3125 27.125 25.5 27.375C25.6875 27.625 25.625 28 25.375 28.1875C23.6875 29.375 21.75 29.9375 19.75 29.9375Z" fill="url(#paint2_linear_338_189)"/>
<path d="M19.75 25.1875C16.875 25.1875 14.5625 22.875 14.5625 20C14.5625 17.125 16.875 14.8125 19.75 14.8125C22.625 14.8125 24.9375 17.125 24.9375 20C24.9375 21.0625 24.625 22 24.0625 22.875C23.875 23.125 23.5 23.25 23.25 23.0625C23 22.875 22.875 22.5 23.0625 22.25C23.5 21.625 23.75 20.8125 23.75 20.0625C23.75 17.875 21.9375 16.0625 19.75 16.0625C17.5625 16.0625 15.75 17.875 15.75 20.0625C15.75 22.25 17.5625 24.0625 19.75 24.0625C20.625 24.0625 21.375 23.8125 22.0625 23.3125C22.3125 23.125 22.6875 23.1875 22.875 23.4375C23.0625 23.6875 23 24.0625 22.75 24.25C21.875 24.875 20.8125 25.1875 19.75 25.1875ZM19.75 39.5C19.4375 39.5 19.125 39.25 19.125 38.875V27.6875C19.125 27.375 19.375 27.0625 19.75 27.0625C20.0625 27.0625 20.375 27.3125 20.375 27.6875V38.875C20.3125 39.1875 20.0625 39.5 19.75 39.5ZM12.4375 20.625H0.625C0.3125 20.625 0 20.375 0 20C0 19.6875 0.25 19.375 0.625 19.375H12.5C12.8125 19.375 13.125 19.625 13.125 20C13.0625 20.3125 12.75 20.625 12.4375 20.625ZM38.875 20.625H27C26.6875 20.625 26.375 20.375 26.375 20C26.375 19.6875 26.625 19.375 27 19.375H38.875C39.1875 19.375 39.5 19.625 39.5 20C39.5 20.3125 39.25 20.625 38.875 20.625ZM34.8125 38.25C34.5625 38.25 34.3125 38.125 34.125 38L22.8125 26.3125C22.5625 26.0625 22.5625 25.6875 22.8125 25.4375L25.3125 23C25.5625 22.75 25.9375 22.75 26.1875 23L37.5 34.6875C37.6875 34.875 37.75 35.125 37.75 35.3125C37.75 35.5625 37.625 35.8125 37.5 35.9375L35.4375 37.9375C35.3125 38.125 35.0625 38.25 34.8125 38.25ZM24.0625 25.875L34.8125 36.9375L36.4375 35.3125L25.6875 24.25L24.0625 25.875Z" fill="url(#paint3_linear_338_189)"/>
<path d="M33.6875 37.25C33.5625 37.25 33.375 37.1875 33.25 37.0625C33 36.8125 33 36.4375 33.25 36.1875L35.75 33.75C36 33.5 36.375 33.5 36.625 33.75C36.875 34 36.875 34.375 36.625 34.625L34.125 37.0625C34 37.1875 33.875 37.25 33.6875 37.25ZM23.25 26.4375C23 26.4375 22.75 26.3125 22.6875 26.0625L21.1875 22C21.125 21.75 21.1875 21.5 21.3125 21.375C21.5 21.1875 21.75 21.1875 21.9375 21.25L25.9375 22.875C26.25 23 26.375 23.375 26.25 23.625C26.125 23.9375 25.75 24.0625 25.5 23.9375L22.75 22.8125L23.8125 25.625C23.9375 25.9375 23.75 26.25 23.4375 26.375C23.375 26.4375 23.3125 26.4375 23.25 26.4375ZM6.31251 36C6.31251 36.125 6.37501 36.25 6.50001 36.25C6.62501 36.3125 6.75001 36.25 6.81251 36.1875L7.87501 35.125H9.37501C9.50001 35.125 9.62501 35.0625 9.62501 34.9375C9.68751 34.8125 9.62501 34.6875 9.56251 34.625L8.50001 33.5625V32.0625C8.50001 31.9375 8.43751 31.8125 8.31251 31.8125C8.18751 31.75 8.06251 31.8125 8.00001 31.875L6.93751 32.9375H5.43751C5.31251 32.9375 5.18751 33 5.18751 33.125C5.12501 33.25 5.18751 33.375 5.25001 33.4375L6.31251 34.5V36ZM7.12501 33.5625C7.18751 33.5625 7.31251 33.5625 7.31251 33.5L7.93751 32.875V33.75C7.93751 33.8125 7.93751 33.9375 8.00001 33.9375L8.62501 34.5625H7.75001C7.68751 34.5625 7.56251 34.5625 7.56251 34.625L6.93751 35.25V34.375C6.93751 34.3125 6.93751 34.1875 6.87501 34.1875L6.25001 33.5625H7.12501ZM34.125 12.125C34.125 12.3125 34.25 12.5625 34.4375 12.625C34.625 12.6875 34.875 12.6875 35 12.5L36.8125 10.625L39.375 10.6875C39.5625 10.6875 39.8125 10.5625 39.875 10.375C39.9375 10.1875 39.9375 9.93753 39.75 9.81253L37.875 8.00003L37.9375 5.43753C37.9375 5.25003 37.8125 5.00003 37.625 4.93753C37.4375 4.87503 37.1875 4.87503 37.0625 5.06253L35.25 6.93753L32.6875 6.87503C32.5 6.87503 32.25 7.00003 32.1875 7.18753C32.125 7.37503 32.125 7.62503 32.3125 7.75003L34.1875 9.56253L34.125 12.125ZM35.5 7.93753C35.625 7.93753 35.75 7.87503 35.875 7.75003L36.9375 6.68753V8.18753C36.9375 8.31253 37 8.43753 37.125 8.56253L38.1875 9.62503H36.6875C36.5625 9.62503 36.4375 9.68753 36.3125 9.81253L35.25 10.875V9.37503C35.25 9.25003 35.1875 9.12503 35.0625 9.00003L34 7.93753H35.5Z" fill="url(#paint4_linear_338_189)"/>
</g>
<defs>
<linearGradient id="paint0_linear_338_189" x1="19.125" y1="0.5" x2="21.8631" y2="0.803623" gradientUnits="userSpaceOnUse">
<stop stop-color="#54B0C5"/>
<stop offset="1" stop-color="#5ACD84"/>
</linearGradient>
<linearGradient id="paint1_linear_338_189" x1="5.125" y1="5.375" x2="34.375" y2="37.6481" gradientUnits="userSpaceOnUse">
<stop stop-color="#54B0C5"/>
<stop offset="1" stop-color="#5ACD84"/>
</linearGradient>
<linearGradient id="paint2_linear_338_189" x1="9.8125" y1="10.0625" x2="29.6875" y2="31.9917" gradientUnits="userSpaceOnUse">
<stop stop-color="#54B0C5"/>
<stop offset="1" stop-color="#5ACD84"/>
</linearGradient>
<linearGradient id="paint3_linear_338_189" x1="0" y1="14.8125" x2="21.2769" y2="52.3741" gradientUnits="userSpaceOnUse">
<stop stop-color="#54B0C5"/>
<stop offset="1" stop-color="#5ACD84"/>
</linearGradient>
<linearGradient id="paint4_linear_338_189" x1="5.16162" y1="4.90015" x2="37.1865" y2="42.9813" gradientUnits="userSpaceOnUse">
<stop stop-color="#54B0C5"/>
<stop offset="1" stop-color="#5ACD84"/>
</linearGradient>
<clipPath id="clip0_338_189">
<rect width="40" height="40" fill="white"/>
</clipPath>
</defs>
</svg>
