<svg xmlns="http://www.w3.org/2000/svg" width="200" height="200" viewBox="0 0 200 200" fill="none">
  <path fill-rule="evenodd" clip-rule="evenodd" d="M100 28.6064C97.0667 28.6822 94.279 29.9007 92.2311 32.0022C90.1833 34.1037 89.0372 36.9221 89.0372 39.8564C89.0372 42.7908 90.1833 45.6091 92.2311 47.7106C94.279 49.8122 97.0667 51.0307 100 51.1064C102.933 51.0307 105.721 49.8122 107.769 47.7106C109.817 45.6091 110.963 42.7908 110.963 39.8564C110.963 36.9221 109.817 34.1037 107.769 32.0022C105.721 29.9007 102.933 28.6822 100 28.6064ZM100 36.1064C100.995 36.1064 101.948 36.5015 102.652 37.2048C103.355 37.908 103.75 38.8619 103.75 39.8564C103.75 40.851 103.355 41.8048 102.652 42.5081C101.948 43.2113 100.995 43.6064 100 43.6064C99.0055 43.6064 98.0517 43.2113 97.3485 42.5081C96.6452 41.8048 96.2501 40.851 96.2501 39.8564C96.2501 38.8619 96.6452 37.908 97.3485 37.2048C98.0517 36.5015 99.0055 36.1064 100 36.1064ZM62.5014 96.1064C59.5682 96.1821 56.7805 97.4006 54.7326 99.5021C52.6847 101.604 51.5386 104.422 51.5386 107.356C51.5386 110.291 52.6847 113.109 54.7326 115.211C56.7805 117.312 59.5682 118.531 62.5014 118.606C65.4347 118.531 68.2224 117.312 70.2703 115.211C72.3182 113.109 73.4643 110.291 73.4643 107.356C73.4643 104.422 72.3182 101.604 70.2703 99.5021C68.2224 97.4006 65.4347 96.1821 62.5014 96.1064ZM62.5014 103.606C63.496 103.606 64.4498 104.001 65.153 104.705C65.8562 105.408 66.2513 106.362 66.2513 107.356C66.2513 108.351 65.8562 109.305 65.153 110.008C64.4498 110.711 63.496 111.106 62.5014 111.106C61.5069 111.106 60.5531 110.711 59.8499 110.008C59.1467 109.305 58.7516 108.351 58.7516 107.356C58.7516 106.362 59.1467 105.408 59.8499 104.705C60.5531 104.001 61.5069 103.606 62.5014 103.606ZM137.499 96.1064C134.565 96.1821 131.778 97.4006 129.73 99.5021C127.682 101.604 126.536 104.422 126.536 107.356C126.536 110.291 127.682 113.109 129.73 115.211C131.778 117.312 134.565 118.531 137.499 118.606C140.432 118.531 143.22 117.312 145.267 115.211C147.315 113.109 148.461 110.291 148.461 107.356C148.461 104.422 147.315 101.604 145.267 99.5021C143.22 97.4006 140.432 96.1821 137.499 96.1064ZM137.499 103.606C138.493 103.606 139.447 104.001 140.15 104.705C140.853 105.408 141.248 106.362 141.248 107.356C141.248 108.351 140.853 109.305 140.15 110.008C139.447 110.711 138.493 111.106 137.499 111.106C136.504 111.106 135.55 110.711 134.847 110.008C134.144 109.305 133.749 108.351 133.749 107.356C133.749 106.362 134.144 105.408 134.847 104.705C135.55 104.001 136.504 103.606 137.499 103.606ZM81.442 68.6676C81.2535 69.2316 81.2018 69.8323 81.2912 70.4202C81.3806 71.0081 81.6085 71.5663 81.9561 72.0487C82.3037 72.5311 82.7611 72.924 83.2904 73.1948C83.8198 73.4657 84.406 73.6067 85.0006 73.6064H114.999C115.594 73.6067 116.18 73.4657 116.71 73.1948C117.239 72.924 117.696 72.5311 118.044 72.0487C118.392 71.5663 118.619 71.0081 118.709 70.4202C118.798 69.8323 118.747 69.2316 118.558 68.6676C116.293 61.8877 108.392 54.8564 100 54.8564C91.6078 54.8564 83.7069 61.8877 81.442 68.6676ZM91.7503 66.1064C93.9365 63.9389 96.8989 62.3564 100 62.3564C103.101 62.3564 106.064 63.9389 108.25 66.1101L91.7503 66.1064ZM43.9434 136.168C43.7549 136.732 43.7032 137.332 43.7926 137.92C43.882 138.508 44.1099 139.066 44.4576 139.549C44.8052 140.031 45.2625 140.424 45.7919 140.695C46.3212 140.966 46.9074 141.107 47.502 141.106H77.5009C78.0955 141.107 78.6816 140.966 79.211 140.695C79.7403 140.424 80.1977 140.031 80.5453 139.549C80.8929 139.066 81.1209 138.508 81.2103 137.92C81.2997 137.332 81.248 136.732 81.0595 136.168C78.7946 129.388 70.8936 122.356 62.5014 122.356C54.1093 122.356 46.2083 129.388 43.9434 136.168ZM54.2518 133.606C56.4379 131.439 59.4003 129.856 62.5014 129.856C65.6026 129.856 68.565 131.439 70.7511 133.61L54.2518 133.606ZM118.941 136.168C118.752 136.732 118.7 137.332 118.79 137.92C118.879 138.508 119.107 139.066 119.455 139.549C119.802 140.031 120.26 140.424 120.789 140.695C121.318 140.966 121.905 141.107 122.499 141.106H152.498C153.093 141.107 153.679 140.966 154.208 140.695C154.737 140.424 155.195 140.031 155.542 139.549C155.89 139.066 156.118 138.508 156.207 137.92C156.297 137.332 156.245 136.732 156.057 136.168C153.792 129.388 145.891 122.356 137.499 122.356C129.106 122.356 121.205 129.388 118.941 136.168ZM129.249 133.606C131.435 131.439 134.397 129.856 137.499 129.856C140.6 129.856 143.562 131.439 145.748 133.61L129.249 133.606Z" fill="url(#paint0_linear_206_85)"/>
  <path fill-rule="evenodd" clip-rule="evenodd" d="M101.531 99.8942V85.3109C101.531 84.3439 101.201 83.4166 100.615 82.7329C100.029 82.0492 99.2343 81.665 98.4055 81.665C97.5767 81.665 96.7819 82.0492 96.1958 82.7329C95.6098 83.4166 95.2805 84.3439 95.2805 85.3109V99.8942C95.2805 100.861 95.6098 101.788 96.1958 102.472C96.7819 103.156 97.5767 103.54 98.4055 103.54C99.2343 103.54 100.029 103.156 100.615 102.472C101.201 101.788 101.531 100.861 101.531 99.8942Z" fill="#A09EB3"/>
  <path fill-rule="evenodd" clip-rule="evenodd" d="M95.6972 97.9812L81.1139 107.356C80.3403 107.853 79.8289 108.594 79.6922 109.414C79.5554 110.235 79.8045 111.068 80.3847 111.731C80.9649 112.394 81.8285 112.833 82.7858 112.95C83.743 113.067 84.7153 112.853 85.4889 112.356L100.072 102.981C100.846 102.484 101.357 101.744 101.494 100.923C101.631 100.103 101.381 99.2693 100.801 98.6062C100.221 97.9432 99.3575 97.5048 98.4003 97.3876C97.4431 97.2704 96.4707 97.4839 95.6972 97.9812Z" fill="#A09EB3"/>
  <path fill-rule="evenodd" clip-rule="evenodd" d="M96.7389 102.981L111.322 112.356C112.096 112.853 113.068 113.067 114.025 112.95C114.982 112.833 115.846 112.394 116.426 111.731C117.006 111.068 117.256 110.235 117.119 109.414C116.982 108.594 116.471 107.853 115.697 107.356L101.114 97.9812C100.731 97.735 100.295 97.5558 99.8312 97.454C99.3674 97.3521 98.8847 97.3296 98.4108 97.3876C97.4535 97.5048 96.5899 97.9432 96.0097 98.6062C95.4295 99.2692 95.1804 100.103 95.3172 100.923C95.4539 101.744 95.9653 102.484 96.7389 102.981Z" fill="#A09EB3"/>
  <defs>
    <linearGradient id="paint0_linear_206_85" x1="43.75" y1="28.6064" x2="156.25" y2="152.734" gradientUnits="userSpaceOnUse">
      <stop stop-color="#54B0C5"/>
      <stop offset="1" stop-color="#5ACD84"/>
    </linearGradient>
  </defs>
</svg>
