<svg width="65" height="64" viewBox="0 0 65 64" fill="none" xmlns="http://www.w3.org/2000/svg">
<path d="M32.2913 64.0001C49.9644 64.0001 64.2913 49.6732 64.2913 32.0001C64.2913 14.327 49.9644 0 32.2913 0C14.6181 0 0.29126 14.327 0.29126 32.0001C0.29126 49.6732 14.6181 64.0001 32.2913 64.0001Z" fill="#212E2C"/>
<path d="M63.7913 32.0001C63.7913 49.3971 49.6882 63.5001 32.2913 63.5001C14.8943 63.5001 0.79126 49.3971 0.79126 32.0001C0.79126 14.6031 14.8943 0.5 32.2913 0.5C49.6882 0.5 63.7913 14.6031 63.7913 32.0001Z" stroke="url(#paint0_linear_1206_825)" stroke-opacity="0.5"/>
<path fill-rule="evenodd" clip-rule="evenodd" d="M32.2913 9.15405C31.3526 9.17829 30.4605 9.56821 29.8052 10.2407C29.1499 10.9132 28.7832 11.8151 28.7832 12.7541C28.7832 13.6931 29.1499 14.5949 29.8052 15.2674C30.4605 15.9399 31.3526 16.3298 32.2913 16.3541C33.2299 16.3298 34.122 15.9399 34.7773 15.2674C35.4326 14.5949 35.7994 13.6931 35.7994 12.7541C35.7994 11.8151 35.4326 10.9132 34.7773 10.2407C34.122 9.56821 33.2299 9.17829 32.2913 9.15405ZM32.2913 11.5541C32.6095 11.5541 32.9147 11.6805 33.1398 11.9055C33.3648 12.1306 33.4912 12.4358 33.4912 12.7541C33.4912 13.0723 33.3648 13.3775 33.1398 13.6026C32.9147 13.8276 32.6095 13.9541 32.2913 13.9541C31.973 13.9541 31.6678 13.8276 31.4428 13.6026C31.2177 13.3775 31.0913 13.0723 31.0913 12.7541C31.0913 12.4358 31.2177 12.1306 31.4428 11.9055C31.6678 11.6805 31.973 11.5541 32.2913 11.5541ZM20.2917 30.7541C19.3531 30.7783 18.461 31.1682 17.8057 31.8407C17.1504 32.5132 16.7836 33.4151 16.7836 34.3541C16.7836 35.2931 17.1504 36.1949 17.8057 36.8674C18.461 37.5399 19.3531 37.9298 20.2917 37.9541C21.2304 37.9298 22.1224 37.5399 22.7778 36.8674C23.4331 36.1949 23.7998 35.2931 23.7998 34.3541C23.7998 33.4151 23.4331 32.5132 22.7778 31.8407C22.1224 31.1682 21.2304 30.7783 20.2917 30.7541ZM20.2917 33.1541C20.61 33.1541 20.9152 33.2805 21.1402 33.5055C21.3653 33.7306 21.4917 34.0358 21.4917 34.3541C21.4917 34.6723 21.3653 34.9775 21.1402 35.2026C20.9152 35.4276 20.61 35.5541 20.2917 35.5541C19.9735 35.5541 19.6683 35.4276 19.4432 35.2026C19.2182 34.9775 19.0918 34.6723 19.0918 34.3541C19.0918 34.0358 19.2182 33.7306 19.4432 33.5055C19.6683 33.2805 19.9735 33.1541 20.2917 33.1541ZM44.2908 30.7541C43.3521 30.7783 42.4601 31.1682 41.8048 31.8407C41.1494 32.5132 40.7827 33.4151 40.7827 34.3541C40.7827 35.2931 41.1494 36.1949 41.8048 36.8674C42.4601 37.5399 43.3521 37.9298 44.2908 37.9541C45.2295 37.9298 46.1215 37.5399 46.7768 36.8674C47.4322 36.1949 47.7989 35.2931 47.7989 34.3541C47.7989 33.4151 47.4322 32.5132 46.7768 31.8407C46.1215 31.1682 45.2295 30.7783 44.2908 30.7541ZM44.2908 33.1541C44.609 33.1541 44.9143 33.2805 45.1393 33.5055C45.3643 33.7306 45.4908 34.0358 45.4908 34.3541C45.4908 34.6723 45.3643 34.9775 45.1393 35.2026C44.9143 35.4276 44.609 35.5541 44.2908 35.5541C43.9726 35.5541 43.6673 35.4276 43.4423 35.2026C43.2173 34.9775 43.0908 34.6723 43.0908 34.3541C43.0908 34.0358 43.2173 33.7306 43.4423 33.5055C43.6673 33.2805 43.9726 33.1541 44.2908 33.1541ZM26.3527 21.9737C26.2924 22.1541 26.2758 22.3463 26.3044 22.5345C26.333 22.7226 26.406 22.9012 26.5172 23.0556C26.6285 23.21 26.7748 23.3357 26.9442 23.4223C27.1136 23.509 27.3012 23.5542 27.4914 23.5541H37.0911C37.2814 23.5542 37.4689 23.509 37.6383 23.4223C37.8077 23.3357 37.9541 23.21 38.0653 23.0556C38.1765 22.9012 38.2495 22.7226 38.2781 22.5345C38.3067 22.3463 38.2901 22.1541 38.2298 21.9737C37.5051 19.8041 34.9768 17.5541 32.2913 17.5541C29.6058 17.5541 27.0775 19.8041 26.3527 21.9737ZM29.6514 21.1541C30.3509 20.4605 31.2989 19.9541 32.2913 19.9541C33.2836 19.9541 34.2316 20.4605 34.9312 21.1553L29.6514 21.1541ZM14.3531 43.5737C14.2928 43.7541 14.2763 43.9464 14.3049 44.1345C14.3335 44.3226 14.4064 44.5012 14.5177 44.6556C14.6289 44.81 14.7753 44.9357 14.9447 45.0224C15.1141 45.109 15.3016 45.1542 15.4919 45.1541H25.0915C25.2818 45.1542 25.4694 45.109 25.6388 45.0224C25.8082 44.9357 25.9545 44.81 26.0658 44.6556C26.177 44.5012 26.2499 44.3226 26.2785 44.1345C26.3071 43.9464 26.2906 43.7541 26.2303 43.5737C25.5055 41.4041 22.9772 39.1541 20.2917 39.1541C17.6062 39.1541 15.0779 41.4041 14.3531 43.5737ZM17.6518 42.7541C18.3514 42.0605 19.2994 41.5541 20.2917 41.5541C21.2841 41.5541 22.232 42.0605 22.9316 42.7553L17.6518 42.7541ZM38.3522 43.5737C38.2919 43.7541 38.2754 43.9464 38.304 44.1345C38.3326 44.3226 38.4055 44.5012 38.5168 44.6556C38.628 44.81 38.7743 44.9357 38.9437 45.0224C39.1131 45.109 39.3007 45.1542 39.491 45.1541H49.0906C49.2809 45.1542 49.4685 45.109 49.6379 45.0224C49.8073 44.9357 49.9536 44.81 50.0648 44.6556C50.1761 44.5012 50.249 44.3226 50.2776 44.1345C50.3062 43.9464 50.2897 43.7541 50.2294 43.5737C49.5046 41.4041 46.9763 39.1541 44.2908 39.1541C41.6053 39.1541 39.077 41.4041 38.3522 43.5737ZM41.6509 42.7541C42.3505 42.0605 43.2984 41.5541 44.2908 41.5541C45.2832 41.5541 46.2311 42.0605 46.9307 42.7553L41.6509 42.7541Z" fill="url(#paint1_linear_1206_825)"/>
<path fill-rule="evenodd" clip-rule="evenodd" d="M32.781 31.9661V27.2995C32.781 26.9901 32.6756 26.6933 32.4881 26.4745C32.3006 26.2557 32.0462 26.1328 31.781 26.1328C31.5158 26.1328 31.2614 26.2557 31.0739 26.4745C30.8864 26.6933 30.781 26.9901 30.781 27.2995V31.9661C30.781 32.2756 30.8864 32.5723 31.0739 32.7911C31.2614 33.0099 31.5158 33.1328 31.781 33.1328C32.0462 33.1328 32.3006 33.0099 32.4881 32.7911C32.6756 32.5723 32.781 32.2756 32.781 31.9661Z" fill="#A09EB3"/>
<path fill-rule="evenodd" clip-rule="evenodd" d="M30.9143 31.3541L26.2477 34.3541C26.0001 34.5132 25.8365 34.7501 25.7927 35.0126C25.749 35.2752 25.8287 35.5419 26.0143 35.754C26.2 35.9662 26.4764 36.1065 26.7827 36.144C27.089 36.1815 27.4001 36.1132 27.6477 35.954L32.3143 32.9541C32.5619 32.7949 32.7255 32.558 32.7693 32.2955C32.813 32.0329 32.7333 31.7662 32.5477 31.5541C32.362 31.3419 32.0856 31.2016 31.7793 31.1641C31.473 31.1266 31.1619 31.1949 30.9143 31.3541Z" fill="#A09EB3"/>
<path fill-rule="evenodd" clip-rule="evenodd" d="M31.2477 32.9541L35.9143 35.954C36.1619 36.1132 36.473 36.1815 36.7793 36.144C37.0856 36.1065 37.362 35.9662 37.5477 35.754C37.7333 35.5419 37.813 35.2752 37.7693 35.0126C37.7255 34.7501 37.5619 34.5132 37.3143 34.3541L32.6477 31.3541C32.5251 31.2753 32.3856 31.2179 32.2372 31.1853C32.0888 31.1527 31.9344 31.1455 31.7827 31.1641C31.4764 31.2016 31.2 31.3419 31.0143 31.5541C30.8287 31.7662 30.749 32.0329 30.7927 32.2955C30.8365 32.558 31.0001 32.7949 31.2477 32.9541Z" fill="#A09EB3"/>
<defs>
<linearGradient id="paint0_linear_1206_825" x1="0.29126" y1="13.7657" x2="41.8792" y2="64.0001" gradientUnits="userSpaceOnUse">
<stop stop-color="#3B6670"/>
<stop offset="1" stop-color="#3B6670" stop-opacity="0"/>
<stop offset="1" stop-color="#3B6670" stop-opacity="0"/>
</linearGradient>
<linearGradient id="paint1_linear_1206_825" x1="14.2913" y1="9.15405" x2="50.2913" y2="48.8748" gradientUnits="userSpaceOnUse">
<stop stop-color="#54B0C5"/>
<stop offset="1" stop-color="#5ACD84"/>
</linearGradient>
</defs>
</svg>
