<svg width="38" height="38" viewBox="0 0 38 38" fill="none" xmlns="http://www.w3.org/2000/svg">
<mask id="path-1-inside-1_809_1650" fill="white">
<path fill-rule="evenodd" clip-rule="evenodd" d="M31.6453 0.901611L31.152 2.14161L32.492 2.67761C31.2266 3.05761 27.004 4.34294 22.096 6.21894C19.2466 7.30828 16.3933 8.52294 14.216 9.73895C13.128 10.3483 12.2093 10.9523 11.5266 11.5763C10.8426 12.1989 10.3333 12.8629 10.3333 13.6776C10.3333 14.4549 10.8026 15.0989 11.4266 15.6283C12.0506 16.1576 12.8773 16.6203 13.844 17.0709C15.7773 17.9736 18.2893 18.8083 20.7893 19.6416C23.2893 20.4749 25.7773 21.3069 27.5933 22.1536C28.5013 22.5776 29.2386 23.0109 29.708 23.4096C30.1773 23.8069 30.3333 24.1216 30.3333 24.3443C30.3333 24.5109 30.1253 24.9363 29.5333 25.4456C28.9426 25.9549 28.04 26.5269 26.94 27.1069C24.7413 28.2669 21.7586 29.4723 18.7733 30.5496C12.804 32.7056 6.81998 34.3683 6.81998 34.3683L7.17998 35.6509C7.17998 35.6509 13.196 33.9803 19.2266 31.8029C22.2413 30.7136 25.2586 29.5016 27.56 28.2869C28.7106 27.6803 29.6826 27.0736 30.404 26.4536C31.124 25.8336 31.6666 25.1776 31.6666 24.3443C31.6666 23.5669 31.1973 22.9203 30.5733 22.3909C29.9493 21.8616 29.1226 21.4003 28.156 20.9483C26.2226 20.0456 23.7106 19.2109 21.2106 18.3776C18.7106 17.5443 16.2226 16.7123 14.4066 15.8656C13.4986 15.4416 12.7613 15.0083 12.292 14.6096C11.8226 14.2123 11.6666 13.9003 11.6666 13.6776C11.6666 13.4923 11.8653 13.0709 12.4213 12.5629C12.9786 12.0563 13.8306 11.4829 14.8666 10.9043C16.94 9.74561 19.7533 8.54428 22.5706 7.46694C27.8106 5.46294 32.6493 4.01361 33.36 3.80294L32.6386 5.60694L33.8786 6.10161L35.3613 2.38828L31.6453 0.901611ZM11.6666 2.34428V3.67761H10.3333V5.01094H11.6666V6.34428H13V5.01094H14.3333V3.67761H13V2.34428H11.6666ZM6.33331 11.0109C5.23598 11.0109 4.33331 11.9149 4.33331 13.0109C4.33331 14.1083 5.23598 15.0109 6.33331 15.0109C7.43065 15.0109 8.33331 14.1083 8.33331 13.0109C8.33331 11.9149 7.43065 11.0109 6.33331 11.0109ZM6.33331 12.3443C6.70931 12.3443 6.99998 12.6349 6.99998 13.0109C6.99998 13.3869 6.70931 13.6776 6.33331 13.6776C6.24542 13.6789 6.15816 13.6625 6.07671 13.6294C5.99526 13.5964 5.92127 13.5473 5.85911 13.4852C5.79695 13.423 5.74789 13.349 5.71483 13.2675C5.68177 13.1861 5.66539 13.0988 5.66665 13.0109C5.66665 12.6349 5.95731 12.3443 6.33331 12.3443ZM28.3333 13.0109V14.3443H27V15.6776H28.3333V17.0109H29.6666V15.6776H31V14.3443H29.6666V13.0109H28.3333ZM8.99998 23.0109V24.3443H7.66665V25.6776H8.99998V27.0109H10.3333V25.6776H11.6666V24.3443H10.3333V23.0109H8.99998ZM35.6666 23.0109C34.5693 23.0109 33.6666 23.9149 33.6666 25.0109C33.6666 26.1083 34.5693 27.0109 35.6666 27.0109C36.764 27.0109 37.6666 26.1083 37.6666 25.0109C37.6666 23.9149 36.764 23.0109 35.6666 23.0109ZM35.6666 24.3443C36.0426 24.3443 36.3333 24.6349 36.3333 25.0109C36.3333 25.3869 36.0426 25.6776 35.6666 25.6776C35.5788 25.6789 35.4915 25.6625 35.41 25.6294C35.3286 25.5964 35.2546 25.5473 35.1924 25.4852C35.1303 25.423 35.0812 25.349 35.0482 25.2675C35.0151 25.1861 34.9987 25.0988 35 25.0109C35 24.6349 35.2906 24.3443 35.6666 24.3443ZM2.33331 31.0109C1.23598 31.0109 0.333313 31.9149 0.333313 33.0109C0.333313 34.1083 1.23598 35.0109 2.33331 35.0109C3.43065 35.0109 4.33331 34.1083 4.33331 33.0109C4.33331 31.9149 3.43065 31.0109 2.33331 31.0109ZM2.33331 32.3443C2.70931 32.3443 2.99998 32.6349 2.99998 33.0109C2.99998 33.3869 2.70931 33.6776 2.33331 33.6776C2.24542 33.6789 2.15816 33.6625 2.07671 33.6294C1.99526 33.5964 1.92127 33.5473 1.85911 33.4852C1.79695 33.423 1.74789 33.349 1.71483 33.2675C1.68177 33.1861 1.66539 33.0988 1.66665 33.0109C1.66665 32.6349 1.95731 32.3443 2.33331 32.3443ZM23.6666 33.6776V35.0109H22.3333V36.3443H23.6666V37.6776H25V36.3443H26.3333V35.0109H25V33.6776H23.6666Z"/>
</mask>
<path fill-rule="evenodd" clip-rule="evenodd" d="M31.6453 0.901611L31.152 2.14161L32.492 2.67761C31.2266 3.05761 27.004 4.34294 22.096 6.21894C19.2466 7.30828 16.3933 8.52294 14.216 9.73895C13.128 10.3483 12.2093 10.9523 11.5266 11.5763C10.8426 12.1989 10.3333 12.8629 10.3333 13.6776C10.3333 14.4549 10.8026 15.0989 11.4266 15.6283C12.0506 16.1576 12.8773 16.6203 13.844 17.0709C15.7773 17.9736 18.2893 18.8083 20.7893 19.6416C23.2893 20.4749 25.7773 21.3069 27.5933 22.1536C28.5013 22.5776 29.2386 23.0109 29.708 23.4096C30.1773 23.8069 30.3333 24.1216 30.3333 24.3443C30.3333 24.5109 30.1253 24.9363 29.5333 25.4456C28.9426 25.9549 28.04 26.5269 26.94 27.1069C24.7413 28.2669 21.7586 29.4723 18.7733 30.5496C12.804 32.7056 6.81998 34.3683 6.81998 34.3683L7.17998 35.6509C7.17998 35.6509 13.196 33.9803 19.2266 31.8029C22.2413 30.7136 25.2586 29.5016 27.56 28.2869C28.7106 27.6803 29.6826 27.0736 30.404 26.4536C31.124 25.8336 31.6666 25.1776 31.6666 24.3443C31.6666 23.5669 31.1973 22.9203 30.5733 22.3909C29.9493 21.8616 29.1226 21.4003 28.156 20.9483C26.2226 20.0456 23.7106 19.2109 21.2106 18.3776C18.7106 17.5443 16.2226 16.7123 14.4066 15.8656C13.4986 15.4416 12.7613 15.0083 12.292 14.6096C11.8226 14.2123 11.6666 13.9003 11.6666 13.6776C11.6666 13.4923 11.8653 13.0709 12.4213 12.5629C12.9786 12.0563 13.8306 11.4829 14.8666 10.9043C16.94 9.74561 19.7533 8.54428 22.5706 7.46694C27.8106 5.46294 32.6493 4.01361 33.36 3.80294L32.6386 5.60694L33.8786 6.10161L35.3613 2.38828L31.6453 0.901611ZM11.6666 2.34428V3.67761H10.3333V5.01094H11.6666V6.34428H13V5.01094H14.3333V3.67761H13V2.34428H11.6666ZM6.33331 11.0109C5.23598 11.0109 4.33331 11.9149 4.33331 13.0109C4.33331 14.1083 5.23598 15.0109 6.33331 15.0109C7.43065 15.0109 8.33331 14.1083 8.33331 13.0109C8.33331 11.9149 7.43065 11.0109 6.33331 11.0109ZM6.33331 12.3443C6.70931 12.3443 6.99998 12.6349 6.99998 13.0109C6.99998 13.3869 6.70931 13.6776 6.33331 13.6776C6.24542 13.6789 6.15816 13.6625 6.07671 13.6294C5.99526 13.5964 5.92127 13.5473 5.85911 13.4852C5.79695 13.423 5.74789 13.349 5.71483 13.2675C5.68177 13.1861 5.66539 13.0988 5.66665 13.0109C5.66665 12.6349 5.95731 12.3443 6.33331 12.3443ZM28.3333 13.0109V14.3443H27V15.6776H28.3333V17.0109H29.6666V15.6776H31V14.3443H29.6666V13.0109H28.3333ZM8.99998 23.0109V24.3443H7.66665V25.6776H8.99998V27.0109H10.3333V25.6776H11.6666V24.3443H10.3333V23.0109H8.99998ZM35.6666 23.0109C34.5693 23.0109 33.6666 23.9149 33.6666 25.0109C33.6666 26.1083 34.5693 27.0109 35.6666 27.0109C36.764 27.0109 37.6666 26.1083 37.6666 25.0109C37.6666 23.9149 36.764 23.0109 35.6666 23.0109ZM35.6666 24.3443C36.0426 24.3443 36.3333 24.6349 36.3333 25.0109C36.3333 25.3869 36.0426 25.6776 35.6666 25.6776C35.5788 25.6789 35.4915 25.6625 35.41 25.6294C35.3286 25.5964 35.2546 25.5473 35.1924 25.4852C35.1303 25.423 35.0812 25.349 35.0482 25.2675C35.0151 25.1861 34.9987 25.0988 35 25.0109C35 24.6349 35.2906 24.3443 35.6666 24.3443ZM2.33331 31.0109C1.23598 31.0109 0.333313 31.9149 0.333313 33.0109C0.333313 34.1083 1.23598 35.0109 2.33331 35.0109C3.43065 35.0109 4.33331 34.1083 4.33331 33.0109C4.33331 31.9149 3.43065 31.0109 2.33331 31.0109ZM2.33331 32.3443C2.70931 32.3443 2.99998 32.6349 2.99998 33.0109C2.99998 33.3869 2.70931 33.6776 2.33331 33.6776C2.24542 33.6789 2.15816 33.6625 2.07671 33.6294C1.99526 33.5964 1.92127 33.5473 1.85911 33.4852C1.79695 33.423 1.74789 33.349 1.71483 33.2675C1.68177 33.1861 1.66539 33.0988 1.66665 33.0109C1.66665 32.6349 1.95731 32.3443 2.33331 32.3443ZM23.6666 33.6776V35.0109H22.3333V36.3443H23.6666V37.6776H25V36.3443H26.3333V35.0109H25V33.6776H23.6666Z" fill="#54C1FF" stroke="url(#paint0_linear_809_1650)" stroke-width="2" mask="url(#path-1-inside-1_809_1650)"/>
<defs>
<linearGradient id="paint0_linear_809_1650" x1="0.333313" y1="0.901611" x2="37.051" y2="42.0282" gradientUnits="userSpaceOnUse">
<stop stop-color="#54B0C5"/>
<stop offset="1" stop-color="#5ACD84"/>
</linearGradient>
</defs>
</svg>
