<svg width="65" height="64" viewBox="0 0 65 64" fill="none" xmlns="http://www.w3.org/2000/svg">
<path d="M32.2913 64.0001C49.9644 64.0001 64.2913 49.6732 64.2913 32.0001C64.2913 14.327 49.9644 0 32.2913 0C14.6181 0 0.29126 14.327 0.29126 32.0001C0.29126 49.6732 14.6181 64.0001 32.2913 64.0001Z" fill="#212E2C"/>
<path d="M63.7913 32.0001C63.7913 49.3971 49.6882 63.5001 32.2913 63.5001C14.8943 63.5001 0.79126 49.3971 0.79126 32.0001C0.79126 14.6031 14.8943 0.5 32.2913 0.5C49.6882 0.5 63.7913 14.6031 63.7913 32.0001Z" stroke="url(#paint0_linear_1206_450)" stroke-opacity="0.5"/>
<mask id="path-3-inside-1_1206_450" fill="white">
<path fill-rule="evenodd" clip-rule="evenodd" d="M44.9365 13.6119L44.4432 14.8519L45.7832 15.3879C44.5178 15.7679 40.2952 17.0533 35.3872 18.9293C32.5378 20.0186 29.6845 21.2333 27.5072 22.4493C26.4192 23.0586 25.5005 23.6626 24.8178 24.2866C24.1338 24.9093 23.6245 25.5733 23.6245 26.3879C23.6245 27.1653 24.0938 27.8093 24.7178 28.3386C25.3418 28.8679 26.1685 29.3306 27.1352 29.7813C29.0685 30.6839 31.5805 31.5186 34.0805 32.3519C36.5805 33.1853 39.0685 34.0173 40.8845 34.8639C41.7925 35.2879 42.5298 35.7213 42.9992 36.1199C43.4685 36.5173 43.6245 36.8319 43.6245 37.0546C43.6245 37.2213 43.4165 37.6466 42.8245 38.1559C42.2338 38.6653 41.3312 39.2373 40.2312 39.8173C38.0325 40.9773 35.0498 42.1826 32.0645 43.2599C26.0952 45.4159 20.1112 47.0786 20.1112 47.0786L20.4712 48.3613C20.4712 48.3613 26.4872 46.6906 32.5178 44.5133C35.5325 43.4239 38.5498 42.2119 40.8512 40.9973C42.0018 40.3906 42.9738 39.7839 43.6952 39.1639C44.4152 38.5439 44.9578 37.8879 44.9578 37.0546C44.9578 36.2773 44.4885 35.6306 43.8645 35.1013C43.2405 34.5719 42.4138 34.1106 41.4472 33.6586C39.5138 32.7559 37.0018 31.9213 34.5018 31.0879C32.0018 30.2546 29.5138 29.4226 27.6978 28.5759C26.7898 28.1519 26.0525 27.7186 25.5832 27.3199C25.1138 26.9226 24.9578 26.6106 24.9578 26.3879C24.9578 26.2026 25.1565 25.7813 25.7125 25.2733C26.2698 24.7666 27.1218 24.1933 28.1578 23.6146C30.2312 22.4559 33.0445 21.2546 35.8618 20.1773C41.1018 18.1733 45.9405 16.7239 46.6512 16.5133L45.9298 18.3173L47.1698 18.8119L48.6525 15.0986L44.9365 13.6119ZM24.9578 15.0546V16.3879H23.6245V17.7213H24.9578V19.0546H26.2912V17.7213H27.6245V16.3879H26.2912V15.0546H24.9578ZM19.6245 23.7213C18.5272 23.7213 17.6245 24.6253 17.6245 25.7213C17.6245 26.8186 18.5272 27.7213 19.6245 27.7213C20.7218 27.7213 21.6245 26.8186 21.6245 25.7213C21.6245 24.6253 20.7218 23.7213 19.6245 23.7213ZM19.6245 25.0546C20.0005 25.0546 20.2912 25.3453 20.2912 25.7213C20.2912 26.0973 20.0005 26.3879 19.6245 26.3879C19.5366 26.3892 19.4494 26.3728 19.3679 26.3398C19.2865 26.3067 19.2125 26.2576 19.1503 26.1955C19.0881 26.1333 19.0391 26.0593 19.006 25.9779C18.973 25.8964 18.9566 25.8092 18.9578 25.7213C18.9578 25.3453 19.2485 25.0546 19.6245 25.0546ZM41.6245 25.7213V27.0546H40.2912V28.3879H41.6245V29.7213H42.9578V28.3879H44.2912V27.0546H42.9578V25.7213H41.6245ZM22.2912 35.7213V37.0546H20.9578V38.3879H22.2912V39.7213H23.6245V38.3879H24.9578V37.0546H23.6245V35.7213H22.2912ZM48.9578 35.7213C47.8605 35.7213 46.9578 36.6253 46.9578 37.7213C46.9578 38.8186 47.8605 39.7213 48.9578 39.7213C50.0552 39.7213 50.9578 38.8186 50.9578 37.7213C50.9578 36.6253 50.0552 35.7213 48.9578 35.7213ZM48.9578 37.0546C49.3338 37.0546 49.6245 37.3453 49.6245 37.7213C49.6245 38.0973 49.3338 38.3879 48.9578 38.3879C48.8699 38.3892 48.7827 38.3728 48.7012 38.3398C48.6198 38.3067 48.5458 38.2576 48.4836 38.1955C48.4215 38.1333 48.3724 38.0593 48.3394 37.9779C48.3063 37.8964 48.2899 37.8092 48.2912 37.7213C48.2912 37.3453 48.5818 37.0546 48.9578 37.0546ZM15.6245 43.7213C14.5272 43.7213 13.6245 44.6253 13.6245 45.7213C13.6245 46.8186 14.5272 47.7213 15.6245 47.7213C16.7218 47.7213 17.6245 46.8186 17.6245 45.7213C17.6245 44.6253 16.7218 43.7213 15.6245 43.7213ZM15.6245 45.0546C16.0005 45.0546 16.2912 45.3453 16.2912 45.7213C16.2912 46.0973 16.0005 46.3879 15.6245 46.3879C15.5366 46.3892 15.4494 46.3728 15.3679 46.3398C15.2865 46.3067 15.2125 46.2576 15.1503 46.1955C15.0881 46.1333 15.0391 46.0593 15.006 45.9779C14.973 45.8964 14.9566 45.8092 14.9578 45.7213C14.9578 45.3453 15.2485 45.0546 15.6245 45.0546ZM36.9578 46.3879V47.7213H35.6245V49.0546H36.9578V50.3879H38.2912V49.0546H39.6245V47.7213H38.2912V46.3879H36.9578Z"/>
</mask>
<path fill-rule="evenodd" clip-rule="evenodd" d="M44.9365 13.6119L44.4432 14.8519L45.7832 15.3879C44.5178 15.7679 40.2952 17.0533 35.3872 18.9293C32.5378 20.0186 29.6845 21.2333 27.5072 22.4493C26.4192 23.0586 25.5005 23.6626 24.8178 24.2866C24.1338 24.9093 23.6245 25.5733 23.6245 26.3879C23.6245 27.1653 24.0938 27.8093 24.7178 28.3386C25.3418 28.8679 26.1685 29.3306 27.1352 29.7813C29.0685 30.6839 31.5805 31.5186 34.0805 32.3519C36.5805 33.1853 39.0685 34.0173 40.8845 34.8639C41.7925 35.2879 42.5298 35.7213 42.9992 36.1199C43.4685 36.5173 43.6245 36.8319 43.6245 37.0546C43.6245 37.2213 43.4165 37.6466 42.8245 38.1559C42.2338 38.6653 41.3312 39.2373 40.2312 39.8173C38.0325 40.9773 35.0498 42.1826 32.0645 43.2599C26.0952 45.4159 20.1112 47.0786 20.1112 47.0786L20.4712 48.3613C20.4712 48.3613 26.4872 46.6906 32.5178 44.5133C35.5325 43.4239 38.5498 42.2119 40.8512 40.9973C42.0018 40.3906 42.9738 39.7839 43.6952 39.1639C44.4152 38.5439 44.9578 37.8879 44.9578 37.0546C44.9578 36.2773 44.4885 35.6306 43.8645 35.1013C43.2405 34.5719 42.4138 34.1106 41.4472 33.6586C39.5138 32.7559 37.0018 31.9213 34.5018 31.0879C32.0018 30.2546 29.5138 29.4226 27.6978 28.5759C26.7898 28.1519 26.0525 27.7186 25.5832 27.3199C25.1138 26.9226 24.9578 26.6106 24.9578 26.3879C24.9578 26.2026 25.1565 25.7813 25.7125 25.2733C26.2698 24.7666 27.1218 24.1933 28.1578 23.6146C30.2312 22.4559 33.0445 21.2546 35.8618 20.1773C41.1018 18.1733 45.9405 16.7239 46.6512 16.5133L45.9298 18.3173L47.1698 18.8119L48.6525 15.0986L44.9365 13.6119ZM24.9578 15.0546V16.3879H23.6245V17.7213H24.9578V19.0546H26.2912V17.7213H27.6245V16.3879H26.2912V15.0546H24.9578ZM19.6245 23.7213C18.5272 23.7213 17.6245 24.6253 17.6245 25.7213C17.6245 26.8186 18.5272 27.7213 19.6245 27.7213C20.7218 27.7213 21.6245 26.8186 21.6245 25.7213C21.6245 24.6253 20.7218 23.7213 19.6245 23.7213ZM19.6245 25.0546C20.0005 25.0546 20.2912 25.3453 20.2912 25.7213C20.2912 26.0973 20.0005 26.3879 19.6245 26.3879C19.5366 26.3892 19.4494 26.3728 19.3679 26.3398C19.2865 26.3067 19.2125 26.2576 19.1503 26.1955C19.0881 26.1333 19.0391 26.0593 19.006 25.9779C18.973 25.8964 18.9566 25.8092 18.9578 25.7213C18.9578 25.3453 19.2485 25.0546 19.6245 25.0546ZM41.6245 25.7213V27.0546H40.2912V28.3879H41.6245V29.7213H42.9578V28.3879H44.2912V27.0546H42.9578V25.7213H41.6245ZM22.2912 35.7213V37.0546H20.9578V38.3879H22.2912V39.7213H23.6245V38.3879H24.9578V37.0546H23.6245V35.7213H22.2912ZM48.9578 35.7213C47.8605 35.7213 46.9578 36.6253 46.9578 37.7213C46.9578 38.8186 47.8605 39.7213 48.9578 39.7213C50.0552 39.7213 50.9578 38.8186 50.9578 37.7213C50.9578 36.6253 50.0552 35.7213 48.9578 35.7213ZM48.9578 37.0546C49.3338 37.0546 49.6245 37.3453 49.6245 37.7213C49.6245 38.0973 49.3338 38.3879 48.9578 38.3879C48.8699 38.3892 48.7827 38.3728 48.7012 38.3398C48.6198 38.3067 48.5458 38.2576 48.4836 38.1955C48.4215 38.1333 48.3724 38.0593 48.3394 37.9779C48.3063 37.8964 48.2899 37.8092 48.2912 37.7213C48.2912 37.3453 48.5818 37.0546 48.9578 37.0546ZM15.6245 43.7213C14.5272 43.7213 13.6245 44.6253 13.6245 45.7213C13.6245 46.8186 14.5272 47.7213 15.6245 47.7213C16.7218 47.7213 17.6245 46.8186 17.6245 45.7213C17.6245 44.6253 16.7218 43.7213 15.6245 43.7213ZM15.6245 45.0546C16.0005 45.0546 16.2912 45.3453 16.2912 45.7213C16.2912 46.0973 16.0005 46.3879 15.6245 46.3879C15.5366 46.3892 15.4494 46.3728 15.3679 46.3398C15.2865 46.3067 15.2125 46.2576 15.1503 46.1955C15.0881 46.1333 15.0391 46.0593 15.006 45.9779C14.973 45.8964 14.9566 45.8092 14.9578 45.7213C14.9578 45.3453 15.2485 45.0546 15.6245 45.0546ZM36.9578 46.3879V47.7213H35.6245V49.0546H36.9578V50.3879H38.2912V49.0546H39.6245V47.7213H38.2912V46.3879H36.9578Z" fill="#54C1FF" stroke="url(#paint1_linear_1206_450)" stroke-width="2" mask="url(#path-3-inside-1_1206_450)"/>
<defs>
<linearGradient id="paint0_linear_1206_450" x1="0.29126" y1="0" x2="64.2913" y2="64.0001" gradientUnits="userSpaceOnUse">
<stop stop-color="#3B6670"/>
<stop offset="1" stop-color="#3B6670" stop-opacity="0"/>
</linearGradient>
<linearGradient id="paint1_linear_1206_450" x1="13.6245" y1="13.6119" x2="50.3422" y2="54.7385" gradientUnits="userSpaceOnUse">
<stop stop-color="#54B0C5"/>
<stop offset="1" stop-color="#5ACD84"/>
</linearGradient>
</defs>
</svg>
